<?xml version="1.0" encoding="utf-8"?>
<!-- Generator: Adobe Illustrator 19.0.0, SVG Export Plug-In . SVG Version: 6.00 Build 0)  -->
<svg version="1.1" id="Layer_1" xmlns="http://www.w3.org/2000/svg" xmlns:xlink="http://www.w3.org/1999/xlink" x="0px" y="0px"
	 viewBox="0 0 600 380" style="enable-background:new 0 0 600 380;" xml:space="preserve">
<g>
	<g>
		<path d="M418.6,191.6c0,31.5,0.1,63-0.1,94.5c-0.1,10.5,5.1,17.6,13.8,21.8c20.7,9.9,41.9,9.5,62.5-0.1c8.4-3.9,13.4-11,13.2-21.1
			c-0.3-18.3-0.2-36.7,0-55c0-4.5-1.4-6.2-6-6.1c-16.5,0.2-33-0.1-49.5,0.1c-4.3,0.1-5.4-1.5-5.4-5.5c0.2-16.2,0.1-32.3,0-48.5
			c0-3.6,0.6-5.4,4.9-5.4c46.7,0.1,93.3,0.1,140,0.1c7.6,0,7.6,0.1,7.6,7.4c0,37.8,0.2,75.7-0.1,113.5c-0.2,19.8-7.1,37.2-21.1,51.7
			c-16.1,16.7-36,26.5-57.9,33.2c-25.2,7.7-51,9.5-77,7.3c-18.1-1.5-36-5.7-53-12.8c-14.3-5.9-27.4-13.4-38.5-24.1
			c-9.2-8.8-16.6-18.8-20.6-31.2c-3.2-10.1-5.5-20.4-2.5-30.8c2.8-9.7,6.5-19.1,9.8-28.7c3.5-10.2,6.9-20.3,10.4-30.5
			c4.3-12.4,8.6-24.7,12.9-37.1c3.3-9.4,6.7-18.7,9.8-28.2c1.6-4.8,0.2-6.1-4.5-4.7c-11.7,3.6-23.4,7.2-35.1,11
			c-4.6,1.5-4.6-1.2-4.6-4.4c0-19.8,0.4-39.7-0.1-59.5c-0.9-31,14.1-53.2,38.5-70c15.7-10.8,33.4-17.3,52.1-21.3
			c20.1-4.4,40.4-6.7,60.9-4.7c29,2.8,57,9.5,81.6,25.8c16.7,11.1,29.5,25.7,35.6,45.2c4.6,14.7,3.7,30,3.1,45.1
			c0,1.3-2.3,3.2-3.8,3.6c-2.3,0.6-5,0.2-7.5,0.3c-24.8,0-49.7-0.1-74.5,0.1c-4.5,0-5.9-1.5-5.7-5.8c0.3-6.7-0.2-13.3,0.1-20
			c0.5-11.4-5.4-18.4-15-22.9c-17.6-8.4-35.8-8.1-53.9-2.5c-14.9,4.6-20.5,12.9-20.5,28.4C418.6,130.6,418.6,161.1,418.6,191.6z"/>
		<path d="M182.1,146c0-45,0.1-90-0.1-135c0-5,1.7-6.2,6.3-6.1c26.5,0.2,53,0.2,79.5,0c4.4,0,6.1,0.9,6.1,5.7
			c-0.2,30.3,0.3,60.7-0.4,91c-0.2,7.1-3.8,14.3-6.5,21.1c-7.2,17.8-14.8,35.5-22.3,53.2c-5,11.9-10,23.7-14.9,35.6
			c-0.5,1.1-0.5,2.4-0.7,3.7c1.4,0.1,3,0.7,4.3,0.3c7.1-2.2,14.1-4.7,21.2-7c4.6-1.5,9.2-2.8,13.7-4.3c4.3-1.4,5.6,0.3,5.5,4.5
			c-0.1,17.8,0,35.7-0.1,53.5c0,10.5,0.7,21.1-0.4,31.5c-2.6,24.4-15.7,42.9-34.9,57.4c-12.6,9.6-27,15.7-41.9,21
			c-26.5,9.5-54,9.2-81.4,7.6c-17.2-1-33.8-5.9-49.8-12.8c-15.5-6.6-29.6-14.9-41.1-27.1C10.7,325.2,2.1,308.2,2,287.9
			c-0.1-23.3,0.1-46.7-0.1-70c0-4.9,1.6-6.3,6.4-6.2c25.3,0.2,50.7,0.1,76,0.1c8.7,0,8.7,0.1,8.7,9c0,18.3,0.4,36.7-0.1,55
			c-0.4,16.2,6.1,27.9,20.9,34c7.2,3,15.3,4.2,23.2,4.7c9.5,0.7,18.8-1.2,27.4-5.8c11.3-6.1,17.9-14.8,17.8-28.2
			C182,235.7,182.1,190.9,182.1,146z"/>
	</g>
</g>
</svg>
